<svg preserveAspectRatio="none" width="100%" height="100%" overflow="visible" style="display: block;" viewBox="0 0 12.6667 14.3237" fill="none" xmlns="http://www.w3.org/2000/svg">
<path id="Vector" d="M10.1047 10.1045L7.276 12.9331C7.1523 13.057 7.0054 13.1552 6.84371 13.2222C6.68202 13.2892 6.5087 13.3237 6.33367 13.3237C6.15864 13.3237 5.98532 13.2892 5.82363 13.2222C5.66194 13.1552 5.51504 13.057 5.39134 12.9331L2.562 10.1045C1.81615 9.35858 1.30823 8.40827 1.10246 7.37371C0.896696 6.33916 1.00233 5.26681 1.406 4.29229C1.80968 3.31777 2.49327 2.48483 3.37032 1.89881C4.24738 1.31279 5.27851 1 6.33334 1C7.38816 1 8.41929 1.31279 9.29635 1.89881C10.1734 2.48483 10.857 3.31777 11.2607 4.29229C11.6643 5.26681 11.77 6.33916 11.5642 7.37371C11.3584 8.40827 10.8505 9.35858 10.1047 10.1045V10.1045Z" stroke="var(--stroke-0, black)" stroke-width="2" stroke-linecap="round" stroke-linejoin="round"/>
</svg>
